<mxfile host="app.diagrams.net" modified="2022-05-04T13:48:52.744Z" agent="5.0 (Windows NT 10.0; Win64; x64) AppleWebKit/537.36 (KHTML, like Gecko) Chrome/101.0.4951.41 Safari/537.36 Edg/101.0.1210.32" etag="_19F8kmPmjtQUBsES4X_" version="17.4.6" type="github">
  <diagram id="TIA2XEV3BKtSu8F1nHmm" name="Page-1">
    <mxGraphModel dx="860" dy="488" grid="1" gridSize="10" guides="1" tooltips="1" connect="1" arrows="1" fold="1" page="1" pageScale="1" pageWidth="827" pageHeight="1169" math="0" shadow="0">
      <root>
        <mxCell id="0" />
        <mxCell id="1" parent="0" />
        <mxCell id="agIXwmPmQFW9j8lmw-CW-1" value="USER" style="shape=umlActor;verticalLabelPosition=bottom;verticalAlign=top;html=1;outlineConnect=0;" vertex="1" parent="1">
          <mxGeometry x="160" y="180" width="60" height="120" as="geometry" />
        </mxCell>
        <mxCell id="agIXwmPmQFW9j8lmw-CW-4" value="" style="rounded=0;whiteSpace=wrap;html=1;fillColor=none;" vertex="1" parent="1">
          <mxGeometry x="270" y="60" width="440" height="450" as="geometry" />
        </mxCell>
        <mxCell id="agIXwmPmQFW9j8lmw-CW-5" value="选择文件源" style="ellipse;whiteSpace=wrap;html=1;" vertex="1" parent="1">
          <mxGeometry x="290" y="150" width="120" height="50" as="geometry" />
        </mxCell>
        <mxCell id="agIXwmPmQFW9j8lmw-CW-7" value="" style="endArrow=classic;html=1;rounded=0;exitX=1;exitY=0.3333333333333333;exitDx=0;exitDy=0;exitPerimeter=0;entryX=0;entryY=0.5;entryDx=0;entryDy=0;" edge="1" parent="1" source="agIXwmPmQFW9j8lmw-CW-1" target="agIXwmPmQFW9j8lmw-CW-5">
          <mxGeometry width="50" height="50" relative="1" as="geometry">
            <mxPoint x="300" y="240" as="sourcePoint" />
            <mxPoint x="350" y="190" as="targetPoint" />
          </mxGeometry>
        </mxCell>
        <mxCell id="agIXwmPmQFW9j8lmw-CW-8" value="燃弧分析" style="ellipse;whiteSpace=wrap;html=1;" vertex="1" parent="1">
          <mxGeometry x="290" y="240" width="120" height="50" as="geometry" />
        </mxCell>
        <mxCell id="agIXwmPmQFW9j8lmw-CW-9" value="" style="endArrow=classic;html=1;rounded=0;exitX=1;exitY=0.3333333333333333;exitDx=0;exitDy=0;exitPerimeter=0;entryX=0;entryY=0.5;entryDx=0;entryDy=0;" edge="1" parent="1" target="agIXwmPmQFW9j8lmw-CW-8" source="agIXwmPmQFW9j8lmw-CW-1">
          <mxGeometry width="50" height="50" relative="1" as="geometry">
            <mxPoint x="190" y="240" as="sourcePoint" />
            <mxPoint x="310" y="410" as="targetPoint" />
          </mxGeometry>
        </mxCell>
        <mxCell id="agIXwmPmQFW9j8lmw-CW-10" value="选择视频文件" style="ellipse;whiteSpace=wrap;html=1;" vertex="1" parent="1">
          <mxGeometry x="490" y="100" width="120" height="50" as="geometry" />
        </mxCell>
        <mxCell id="agIXwmPmQFW9j8lmw-CW-11" value="" style="endArrow=classic;html=1;rounded=0;entryX=0;entryY=0.5;entryDx=0;entryDy=0;exitX=1;exitY=0.5;exitDx=0;exitDy=0;" edge="1" parent="1" source="agIXwmPmQFW9j8lmw-CW-5" target="agIXwmPmQFW9j8lmw-CW-10">
          <mxGeometry width="50" height="50" relative="1" as="geometry">
            <mxPoint x="150" y="140" as="sourcePoint" />
            <mxPoint x="200" y="90" as="targetPoint" />
          </mxGeometry>
        </mxCell>
        <mxCell id="agIXwmPmQFW9j8lmw-CW-12" value="&amp;lt;&amp;lt;include&amp;gt;&amp;gt;" style="edgeLabel;html=1;align=center;verticalAlign=middle;resizable=0;points=[];" vertex="1" connectable="0" parent="agIXwmPmQFW9j8lmw-CW-11">
          <mxGeometry x="0.6112" y="1" relative="1" as="geometry">
            <mxPoint x="-24" y="6" as="offset" />
          </mxGeometry>
        </mxCell>
        <mxCell id="agIXwmPmQFW9j8lmw-CW-13" value="&amp;lt;&amp;lt;include&amp;gt;&amp;gt;" style="edgeLabel;html=1;align=center;verticalAlign=middle;resizable=0;points=[];" vertex="1" connectable="0" parent="agIXwmPmQFW9j8lmw-CW-11">
          <mxGeometry x="0.6112" y="1" relative="1" as="geometry">
            <mxPoint x="-24" y="6" as="offset" />
          </mxGeometry>
        </mxCell>
        <mxCell id="agIXwmPmQFW9j8lmw-CW-14" value="" style="endArrow=classic;html=1;rounded=0;exitX=1;exitY=0.5;exitDx=0;exitDy=0;entryX=0;entryY=0.5;entryDx=0;entryDy=0;" edge="1" parent="1" source="agIXwmPmQFW9j8lmw-CW-5" target="agIXwmPmQFW9j8lmw-CW-17">
          <mxGeometry width="50" height="50" relative="1" as="geometry">
            <mxPoint x="420" y="185" as="sourcePoint" />
            <mxPoint x="750" y="220" as="targetPoint" />
          </mxGeometry>
        </mxCell>
        <mxCell id="agIXwmPmQFW9j8lmw-CW-15" value="&amp;lt;&amp;lt;include&amp;gt;&amp;gt;" style="edgeLabel;html=1;align=center;verticalAlign=middle;resizable=0;points=[];" vertex="1" connectable="0" parent="agIXwmPmQFW9j8lmw-CW-14">
          <mxGeometry x="0.6112" y="1" relative="1" as="geometry">
            <mxPoint x="-24" y="6" as="offset" />
          </mxGeometry>
        </mxCell>
        <mxCell id="agIXwmPmQFW9j8lmw-CW-16" value="&amp;lt;&amp;lt;include&amp;gt;&amp;gt;" style="edgeLabel;html=1;align=center;verticalAlign=middle;resizable=0;points=[];" vertex="1" connectable="0" parent="agIXwmPmQFW9j8lmw-CW-14">
          <mxGeometry x="0.6112" y="1" relative="1" as="geometry">
            <mxPoint x="-24" y="6" as="offset" />
          </mxGeometry>
        </mxCell>
        <mxCell id="agIXwmPmQFW9j8lmw-CW-17" value="选择摄像头" style="ellipse;whiteSpace=wrap;html=1;" vertex="1" parent="1">
          <mxGeometry x="490" y="170" width="120" height="50" as="geometry" />
        </mxCell>
        <mxCell id="agIXwmPmQFW9j8lmw-CW-18" value="" style="endArrow=classic;html=1;rounded=0;exitX=1;exitY=0.5;exitDx=0;exitDy=0;entryX=0;entryY=0.5;entryDx=0;entryDy=0;" edge="1" parent="1" target="agIXwmPmQFW9j8lmw-CW-21" source="agIXwmPmQFW9j8lmw-CW-8">
          <mxGeometry width="50" height="50" relative="1" as="geometry">
            <mxPoint x="366" y="240" as="sourcePoint" />
            <mxPoint x="754" y="295" as="targetPoint" />
          </mxGeometry>
        </mxCell>
        <mxCell id="agIXwmPmQFW9j8lmw-CW-19" value="&amp;lt;&amp;lt;include&amp;gt;&amp;gt;" style="edgeLabel;html=1;align=center;verticalAlign=middle;resizable=0;points=[];" vertex="1" connectable="0" parent="agIXwmPmQFW9j8lmw-CW-18">
          <mxGeometry x="0.6112" y="1" relative="1" as="geometry">
            <mxPoint x="-24" y="6" as="offset" />
          </mxGeometry>
        </mxCell>
        <mxCell id="agIXwmPmQFW9j8lmw-CW-20" value="&amp;lt;&amp;lt;include&amp;gt;&amp;gt;" style="edgeLabel;html=1;align=center;verticalAlign=middle;resizable=0;points=[];" vertex="1" connectable="0" parent="agIXwmPmQFW9j8lmw-CW-18">
          <mxGeometry x="0.6112" y="1" relative="1" as="geometry">
            <mxPoint x="-24" y="6" as="offset" />
          </mxGeometry>
        </mxCell>
        <mxCell id="agIXwmPmQFW9j8lmw-CW-21" value="展示分析视频" style="ellipse;whiteSpace=wrap;html=1;" vertex="1" parent="1">
          <mxGeometry x="494" y="245" width="120" height="50" as="geometry" />
        </mxCell>
        <mxCell id="agIXwmPmQFW9j8lmw-CW-22" value="" style="endArrow=classic;html=1;rounded=0;exitX=1;exitY=0.5;exitDx=0;exitDy=0;entryX=0;entryY=0.5;entryDx=0;entryDy=0;" edge="1" parent="1" target="agIXwmPmQFW9j8lmw-CW-25" source="agIXwmPmQFW9j8lmw-CW-8">
          <mxGeometry width="50" height="50" relative="1" as="geometry">
            <mxPoint x="424" y="240" as="sourcePoint" />
            <mxPoint x="754" y="355" as="targetPoint" />
          </mxGeometry>
        </mxCell>
        <mxCell id="agIXwmPmQFW9j8lmw-CW-23" value="&amp;lt;&amp;lt;include&amp;gt;&amp;gt;" style="edgeLabel;html=1;align=center;verticalAlign=middle;resizable=0;points=[];" vertex="1" connectable="0" parent="agIXwmPmQFW9j8lmw-CW-22">
          <mxGeometry x="0.6112" y="1" relative="1" as="geometry">
            <mxPoint x="-24" y="6" as="offset" />
          </mxGeometry>
        </mxCell>
        <mxCell id="agIXwmPmQFW9j8lmw-CW-24" value="&amp;lt;&amp;lt;include&amp;gt;&amp;gt;" style="edgeLabel;html=1;align=center;verticalAlign=middle;resizable=0;points=[];" vertex="1" connectable="0" parent="agIXwmPmQFW9j8lmw-CW-22">
          <mxGeometry x="0.6112" y="1" relative="1" as="geometry">
            <mxPoint x="-24" y="6" as="offset" />
          </mxGeometry>
        </mxCell>
        <mxCell id="agIXwmPmQFW9j8lmw-CW-25" value="展示分析折线图" style="ellipse;whiteSpace=wrap;html=1;" vertex="1" parent="1">
          <mxGeometry x="494" y="305" width="120" height="50" as="geometry" />
        </mxCell>
        <mxCell id="agIXwmPmQFW9j8lmw-CW-26" value="" style="endArrow=classic;html=1;rounded=0;exitX=1;exitY=0.5;exitDx=0;exitDy=0;entryX=0;entryY=0.5;entryDx=0;entryDy=0;" edge="1" parent="1" target="agIXwmPmQFW9j8lmw-CW-29" source="agIXwmPmQFW9j8lmw-CW-8">
          <mxGeometry width="50" height="50" relative="1" as="geometry">
            <mxPoint x="414" y="375" as="sourcePoint" />
            <mxPoint x="754" y="420" as="targetPoint" />
          </mxGeometry>
        </mxCell>
        <mxCell id="agIXwmPmQFW9j8lmw-CW-27" value="&amp;lt;&amp;lt;include&amp;gt;&amp;gt;" style="edgeLabel;html=1;align=center;verticalAlign=middle;resizable=0;points=[];" vertex="1" connectable="0" parent="agIXwmPmQFW9j8lmw-CW-26">
          <mxGeometry x="0.6112" y="1" relative="1" as="geometry">
            <mxPoint x="-24" y="6" as="offset" />
          </mxGeometry>
        </mxCell>
        <mxCell id="agIXwmPmQFW9j8lmw-CW-28" value="&amp;lt;&amp;lt;include&amp;gt;&amp;gt;" style="edgeLabel;html=1;align=center;verticalAlign=middle;resizable=0;points=[];" vertex="1" connectable="0" parent="agIXwmPmQFW9j8lmw-CW-26">
          <mxGeometry x="0.6112" y="1" relative="1" as="geometry">
            <mxPoint x="-24" y="6" as="offset" />
          </mxGeometry>
        </mxCell>
        <mxCell id="agIXwmPmQFW9j8lmw-CW-29" value="展示故障图像" style="ellipse;whiteSpace=wrap;html=1;" vertex="1" parent="1">
          <mxGeometry x="494" y="370" width="120" height="50" as="geometry" />
        </mxCell>
        <mxCell id="agIXwmPmQFW9j8lmw-CW-30" value="更换故障图像存储路径" style="ellipse;whiteSpace=wrap;html=1;" vertex="1" parent="1">
          <mxGeometry x="290" y="330" width="120" height="50" as="geometry" />
        </mxCell>
        <mxCell id="agIXwmPmQFW9j8lmw-CW-31" value="" style="endArrow=classic;html=1;rounded=0;exitX=1;exitY=0.3333333333333333;exitDx=0;exitDy=0;exitPerimeter=0;entryX=0;entryY=0.5;entryDx=0;entryDy=0;" edge="1" parent="1" source="agIXwmPmQFW9j8lmw-CW-1" target="agIXwmPmQFW9j8lmw-CW-30">
          <mxGeometry width="50" height="50" relative="1" as="geometry">
            <mxPoint x="90" y="470" as="sourcePoint" />
            <mxPoint x="140" y="420" as="targetPoint" />
          </mxGeometry>
        </mxCell>
        <mxCell id="agIXwmPmQFW9j8lmw-CW-32" value="更换使用硬件资源" style="ellipse;whiteSpace=wrap;html=1;" vertex="1" parent="1">
          <mxGeometry x="290" y="440" width="120" height="50" as="geometry" />
        </mxCell>
        <mxCell id="agIXwmPmQFW9j8lmw-CW-33" value="" style="endArrow=classic;html=1;rounded=0;exitX=1;exitY=0.3333333333333333;exitDx=0;exitDy=0;exitPerimeter=0;entryX=0;entryY=0.5;entryDx=0;entryDy=0;" edge="1" parent="1" source="agIXwmPmQFW9j8lmw-CW-1" target="agIXwmPmQFW9j8lmw-CW-32">
          <mxGeometry width="50" height="50" relative="1" as="geometry">
            <mxPoint x="140" y="470" as="sourcePoint" />
            <mxPoint x="190" y="420" as="targetPoint" />
          </mxGeometry>
        </mxCell>
        <mxCell id="agIXwmPmQFW9j8lmw-CW-34" value="基于深度学习的弓网燃弧识别监控系统" style="text;html=1;strokeColor=none;fillColor=none;align=center;verticalAlign=middle;whiteSpace=wrap;rounded=0;fontStyle=1;fontSize=16;" vertex="1" parent="1">
          <mxGeometry x="414" y="60" width="280" height="30" as="geometry" />
        </mxCell>
      </root>
    </mxGraphModel>
  </diagram>
</mxfile>
